HIERARCHY
ROOT Hips
{
	OFFSET -6.501393 103.544830 -3.308209
	CHANNELS 6 Xposition Yposition Zposition Zrotation Yrotation Xrotation 
	JOINT Chest
	{
		OFFSET 3.490766 13.188873 -0.149589
		CHANNELS 6 Xposition Yposition Zposition Zrotation Yrotation Xrotation 
		JOINT Chest2
		{
			OFFSET 2.498665 20.695694 4.950911
			CHANNELS 6 Xposition Yposition Zposition Zrotation Yrotation Xrotation 
			JOINT Chest3
			{
				OFFSET 2.586676 14.483231 2.522879
				CHANNELS 6 Xposition Yposition Zposition Zrotation Yrotation Xrotation 
				JOINT Neck
				{
					OFFSET 3.658716 16.642105 2.875753
					CHANNELS 6 Xposition Yposition Zposition Zrotation Yrotation Xrotation 
					JOINT Head
					{
						OFFSET 0.562498 9.917938 3.338517
						CHANNELS 6 Xposition Yposition Zposition Zrotation Yrotation Xrotation 
						End Site #name: Head_end_site
						{
							OFFSET 0.623727 9.927261 3.299727
						}
					}
				}
				JOINT LeftCollar
				{
					OFFSET 3.158933 11.826752 7.207877
					CHANNELS 6 Xposition Yposition Zposition Zrotation Yrotation Xrotation 
					JOINT LeftUpArm
					{
						OFFSET 9.662516 -4.699112 13.894368
						CHANNELS 6 Xposition Yposition Zposition Zrotation Yrotation Xrotation 
						JOINT LeftLowArm
						{
							OFFSET -26.061760 -12.379883 17.528591
							CHANNELS 6 Xposition Yposition Zposition Zrotation Yrotation Xrotation 
							JOINT LeftHand
							{
								OFFSET -23.105013 -13.493835 13.602276
								CHANNELS 6 Xposition Yposition Zposition Zrotation Yrotation Xrotation 
								End Site #name: LeftHand_end_site
								{
									OFFSET -5.049747 -2.949127 2.972858
								}
							}
						}
					}
				}
				JOINT RightCollar
				{
					OFFSET -1.958067 14.041336 0.903037
					CHANNELS 6 Xposition Yposition Zposition Zrotation Yrotation Xrotation 
					JOINT RightUpArm
					{
						OFFSET -7.902977 5.073425 -14.842493
						CHANNELS 6 Xposition Yposition Zposition Zrotation Yrotation Xrotation 
						JOINT RightLowArm
						{
							OFFSET -31.237156 3.028915 12.441875
							CHANNELS 6 Xposition Yposition Zposition Zrotation Yrotation Xrotation 
							JOINT RightHand
							{
								OFFSET 1.770481 -9.929611 28.270538
								CHANNELS 6 Xposition Yposition Zposition Zrotation Yrotation Xrotation 
								End Site #name: RightHand_end_site
								{
									OFFSET 0.386944 -2.170212 6.178812
								}
							}
						}
					}
				}
			}
		}
	}
	JOINT LeftUpLeg
	{
		OFFSET 6.008414 -1.501137 7.878114
		CHANNELS 6 Xposition Yposition Zposition Zrotation Yrotation Xrotation 
		JOINT LeftLowLeg
		{
			OFFSET -32.490929 -13.194344 31.847103
			CHANNELS 6 Xposition Yposition Zposition Zrotation Yrotation Xrotation 
			JOINT LeftFoot
			{
				OFFSET -27.394722 -30.609779 17.695694
				CHANNELS 6 Xposition Yposition Zposition Zrotation Yrotation Xrotation 
				JOINT LeftToe
				{
					OFFSET -14.301807 2.204399 18.712517
					CHANNELS 6 Xposition Yposition Zposition Zrotation Yrotation Xrotation 
					End Site #name: LeftToe_end_site
					{
						OFFSET -6.634720 15.950195 16.159538
					}
				}
			}
		}
	}
	JOINT RightUpLeg
	{
		OFFSET -6.008467 1.500946 -7.878115
		CHANNELS 6 Xposition Yposition Zposition Zrotation Yrotation Xrotation 
		JOINT RightLowLeg
		{
			OFFSET -7.669543 -46.691193 2.263450
			CHANNELS 6 Xposition Yposition Zposition Zrotation Yrotation Xrotation 
			JOINT RightFoot
			{
				OFFSET 16.419405 -39.122486 -14.156796
				CHANNELS 6 Xposition Yposition Zposition Zrotation Yrotation Xrotation 
				JOINT RightToe
				{
					OFFSET -13.268997 -16.468420 10.596312
					CHANNELS 6 Xposition Yposition Zposition Zrotation Yrotation Xrotation 
					End Site #name: RightToe_end_site
					{
						OFFSET -19.207935 -1.991539 13.661808
					}
				}
			}
		}
	}
}
MOTION
Frames: 7
Frame Time: 0.033333
-37.360905 104.680626 1.698396 15.757306 43.383371 15.810626 3.569861 13.007160 -0.241515 -7.796280 2.320663 -16.502922 2.481203 20.521355 4.974286 -5.728383 8.217191 -0.234944 2.643967 14.384108 2.553350 1.411929 0.812656 8.475408 3.609367 16.492401 2.777128 -2.309674 0.219144 -7.429875 0.565545 9.828112 3.253668 -1.117501 2.123865 5.416664 3.174855 11.709140 7.120221 -1.308366 16.181697 6.185731 9.584977 -4.547354 13.823008 5.287120 23.467227 -11.406944 -25.875610 -12.407511 17.382605 -35.901083 -11.607797 -26.684313 -22.990374 -13.494303 13.418636 0.203414 2.918757 3.127895 -1.891377 13.940996 0.957250 7.330236 1.949456 -7.563170 -7.808894 5.042178 -14.650352 16.810045 -9.129844 -1.149075 -30.856573 2.990713 12.415510 -17.468561 11.031923 -25.694757 1.712207 -9.915568 28.023218 -7.955196 -0.587087 0.354063 5.932566 -1.514676 7.816322 29.066481 -2.705289 31.015759 -32.163677 -12.985563 31.643372 2.718779 5.532539 1.944215 -27.198925 -30.408733 17.471375 2.401270 3.255805 -4.635836 -14.165603 2.153552 18.521404 3.875756 5.165564 -1.140596 -5.858785 1.510278 -7.979156 -20.729780 -5.826242 -0.089624 -7.580918 -46.259789 2.267345 -4.038156 6.199243 -9.248332 16.306784 -38.710487 -14.003489 15.682862 -13.917925 9.787683 -13.059063 -16.377619 10.507021 -2.598002 1.947826 -2.885523 
-37.519775 104.698219 1.736085 16.144646 43.402324 16.022862 3.566783 13.013589 -0.240376 -7.806240 2.580498 -16.889743 2.475293 20.522484 4.974889 -5.772548 7.966470 -0.318411 2.641179 14.379839 2.554281 1.526605 0.843953 8.565346 3.605599 16.495287 2.775172 -2.311089 0.232805 -7.354990 0.570195 9.825324 3.253477 -1.124199 2.135688 5.634063 3.178993 11.708303 7.127069 -1.190435 16.241976 6.330446 9.581710 -4.545220 13.831119 5.117942 23.464203 -11.602973 -25.876036 -12.407086 17.380781 -35.635211 -11.271293 -26.559469 -22.990902 -13.491988 13.415133 0.299886 2.714980 2.930336 -1.894213 13.941324 0.956119 7.190152 1.868440 -7.720603 -7.806445 5.044802 -14.646585 16.878137 -9.390382 -0.823208 -30.856354 2.990350 12.413416 -17.571225 10.781200 -25.798574 1.712606 -9.912652 28.025457 -7.997889 -0.515274 0.356562 5.934435 -1.516469 7.817108 29.176020 -2.903026 31.392308 -32.164200 -12.983683 31.642263 2.529997 5.478009 2.017035 -27.200048 -30.409212 17.470737 2.391927 3.542635 -4.785290 -14.165955 2.153216 18.522980 3.674185 5.387468 -0.932368 -5.859612 1.510071 -7.981828 -20.776906 -5.757194 -0.050612 -7.581409 -46.258453 2.269291 -4.158565 6.457330 -9.655307 16.307814 -38.710854 -14.004222 15.277328 -13.795857 9.986089 -13.057452 -16.376076 10.505957 -2.563253 1.999712 -2.963470 
-37.874531 104.718819 1.825328 16.769011 43.848687 16.415738 3.565601 13.008557 -0.241780 -7.867706 2.436425 -16.743138 2.473816 20.518974 4.972069 -5.784721 8.204986 -0.145381 2.640811 14.380202 2.554043 1.617517 0.867332 8.405126 3.607131 16.490887 2.777822 -2.385001 0.517073 -7.309732 0.567343 9.824484 3.253249 -1.073477 2.135322 5.556064 3.176451 11.706267 7.124149 -1.224598 16.319006 6.331316 9.582377 -4.541326 13.826197 5.039226 23.598925 -11.719677 -25.876453 -12.406733 17.379192 -35.574637 -11.224870 -26.558368 -22.988737 -13.488069 13.411773 0.394244 2.745675 3.081513 -1.895672 13.940187 0.960747 7.060062 1.721182 -7.951567 -7.807912 5.042006 -14.648509 16.485095 -9.258860 -0.580619 -30.855040 2.991520 12.414001 -17.678893 10.804357 -26.239370 1.714395 -9.915831 28.025433 -8.152849 -0.758225 0.194516 5.933121 -1.514204 7.817185 29.091056 -2.884767 31.513158 -32.164036 -12.984537 31.638922 2.744614 5.567132 1.956643 -27.194490 -30.410437 17.472288 2.474564 3.630407 -4.599161 -14.164604 2.150346 18.518995 3.730926 5.274810 -1.158402 -5.854607 1.513887 -7.984789 -20.792911 -5.866170 -0.189782 -7.581244 -46.257587 2.268934 -4.308308 6.480857 -9.696075 16.306057 -38.708996 -14.003512 15.649884 -13.686112 9.847780 -13.057031 -16.369526 10.506466 -2.585435 1.951506 -3.073409 
-38.281010 104.695885 1.893462 16.120853 44.456622 16.277113 3.567451 13.005752 -0.241267 -7.949116 2.686111 -16.953561 2.470902 20.522131 4.978173 -5.977211 8.664914 -0.301575 2.643310 14.378072 2.556717 1.094081 0.751508 8.492871 3.608074 16.489979 2.773260 -2.447198 0.163395 -7.503902 0.570016 9.824009 3.252490 -1.247925 2.181496 5.585029 3.182218 11.710182 7.119781 -0.862071 16.236982 6.123805 9.583694 -4.543473 13.824236 4.715046 23.700850 -12.299468 -25.869513 -12.411773 17.375103 -35.478386 -11.689170 -27.006059 -22.991428 -13.494141 13.413714 0.559403 2.890001 2.909500 -1.893170 13.941066 0.954566 7.078353 1.857107 -7.714642 -7.807039 5.040961 -14.644376 16.729280 -9.160024 -1.014815 -30.848629 2.988567 12.414671 -18.194857 10.812259 -26.380827 1.717176 -9.919515 28.027531 -8.011876 -0.612736 0.564766 5.930916 -1.514952 7.816714 29.088611 -2.890050 31.315680 -32.163147 -12.979881 31.638779 2.794709 5.200147 2.142159 -27.196438 -30.413488 17.473454 2.662769 3.638954 -4.790485 -14.165390 2.153917 18.518490 3.844330 5.380055 -1.145645 -5.856539 1.511813 -7.983102 -21.170084 -5.926619 -0.205896 -7.578045 -46.265079 2.265065 -4.569796 6.367116 -9.368306 16.303308 -38.700386 -14.001583 15.913482 -13.611321 9.756363 -13.055725 -16.371111 10.506635 -2.808317 1.847892 -3.236220 
-38.608551 104.600372 1.900884 16.496370 44.566141 16.812690 3.569306 13.009395 -0.240256 -7.875971 2.855950 -17.086038 2.471884 20.526997 4.974837 -5.792003 8.648555 -0.323568 2.642665 14.376844 2.552039 1.232484 0.752723 8.421587 3.609422 16.491814 2.773919 -2.670538 0.145054 -7.591491 0.571197 9.827473 3.250355 -1.221435 2.166569 5.851850 3.184002 11.706292 7.118195 -1.123815 16.308620 6.497636 9.578479 -4.540050 13.825437 4.571049 23.876811 -12.247775 -25.872597 -12.410270 17.374411 -35.818072 -11.302980 -26.720803 -22.992702 -13.486571 13.411495 0.525197 2.768053 2.835606 -1.888505 13.942132 0.958801 7.135669 1.690101 -7.750033 -7.808026 5.046537 -14.641236 16.789621 -9.215156 -0.797386 -30.851681 2.988184 12.414789 -18.395528 10.728386 -26.604429 1.714893 -9.919658 28.024887 -8.063235 -0.569578 0.490187 5.932706 -1.516094 7.816259 29.059559 -2.699565 31.452912 -32.164528 -12.979977 31.638557 2.956032 5.555894 2.415121 -27.196850 -30.410978 17.471186 2.335684 3.993983 -5.073710 -14.166190 2.151711 18.518322 3.604740 5.380341 -1.166661 -5.856041 1.513819 -7.978431 -21.177710 -6.072603 -0.219297 -7.577852 -46.267887 2.268554 -4.352526 6.515557 -9.055124 16.303724 -38.703941 -14.000482 15.892062 -13.528035 9.883074 -13.053580 -16.372807 10.510558 -2.837814 1.823705 -3.066660 
-38.706375 104.394920 1.809993 15.989662 45.250949 16.811058 3.566926 13.006666 -0.242234 -7.674111 2.838297 -16.716301 2.473718 20.523434 4.980648 -5.925039 8.602905 -0.377747 2.636699 14.373720 2.549617 1.123719 0.654073 8.389798 3.611015 16.495188 2.772748 -2.575060 0.064320 -7.825925 0.570525 9.827669 3.252894 -1.351232 1.899759 5.718141 3.183174 11.711442 7.117844 -1.312904 16.208201 6.469916 9.585305 -4.543132 13.824446 4.732433 23.977972 -12.328816 -25.869844 -12.413663 17.377909 -35.970949 -11.068292 -26.862137 -22.989880 -13.490635 13.417150 0.464185 2.778383 2.999888 -1.888636 13.939622 0.960231 7.284307 2.033326 -7.648331 -7.804966 5.045053 -14.646826 17.167677 -8.701781 -1.071040 -30.854204 2.983144 12.419741 -18.214796 10.623679 -26.303979 1.718909 -9.921313 28.024244 -7.821831 -0.799473 0.626964 5.932255 -1.515103 7.817304 28.778493 -2.704257 30.861390 -32.164597 -12.980812 31.640965 3.206946 5.699043 2.792775 -27.195377 -30.411242 17.471355 2.526531 4.013380 -4.997240 -14.166878 2.158301 18.517591 3.674346 5.211275 -1.260784 -5.863101 1.510940 -7.976590 -21.503418 -6.123487 0.056949 -7.578618 -46.267555 2.268660 -4.212528 6.530387 -8.964710 16.308304 -38.704983 -14.003362 15.919166 -13.221257 9.458142 -13.050875 -16.374197 10.507147 -2.816531 1.640075 -3.240402 
-38.478348 104.053047 1.588746 16.602370 45.210631 17.246947 3.564497 13.010986 -0.241935 -7.328455 2.455703 -16.510765 2.472625 20.526558 4.979317 -5.628621 8.497263 -0.500299 2.634558 14.377396 2.543751 1.610836 0.549139 8.163492 3.605596 16.494593 2.774624 -2.579280 -0.177216 -7.685138 0.570383 9.827348 3.251684 -1.039674 1.906508 5.646883 3.180524 11.709697 7.120994 -1.250370 15.914274 6.772051 9.587347 -4.546312 13.822411 4.992266 23.981404 -12.328083 -25.876558 -12.407919 17.387970 -35.866939 -11.037857 -26.922130 -22.985811 -13.489915 13.419977 0.402561 2.829417 2.818772 -1.888846 13.938574 0.956636 7.781459 2.224415 -7.542345 -7.812507 5.046084 -14.647833 17.942495 -8.977623 -1.219703 -30.856300 2.982141 12.416857 -17.620952 10.423392 -25.934023 1.713673 -9.918327 28.020996 -7.785855 -0.816019 0.762984 5.933836 -1.516102 7.814008 28.444357 -2.362156 30.285633 -32.167671 -12.978502 31.640654 4.031300 5.741688 3.257575 -27.197670 -30.409220 17.476694 1.914288 4.475147 -5.128860 -14.168284 2.157972 18.520819 3.652203 5.018679 -1.418643 -5.863820 1.514525 -7.977121 -21.717078 -6.111939 -0.151339 -7.582557 -46.263615 2.271474 -3.084626 6.597693 -8.584964 16.315424 -38.712719 -14.008963 15.707051 -13.465196 9.429309 -13.050319 -16.371618 10.509795 -2.586261 1.699683 -3.096912 
